<svg xmlns="http://www.w3.org/2000/svg" viewBox="0 0 1200 700" role="img" aria-labelledby="title desc">
  <title id="title">Nature landscape placeholder</title>
  <desc id="desc">Stylized hills, trees, and sun placeholder image.</desc>
  <defs>
    <linearGradient id="sky" x1="0" y1="0" x2="0" y2="1">
      <stop offset="0%" stop-color="#dfeee1" />
      <stop offset="100%" stop-color="#f5f8ef" />
    </linearGradient>
    <linearGradient id="hillA" x1="0" y1="0" x2="1" y2="0">
      <stop offset="0%" stop-color="#8fb89a" />
      <stop offset="100%" stop-color="#6f9d80" />
    </linearGradient>
    <linearGradient id="hillB" x1="0" y1="0" x2="1" y2="0">
      <stop offset="0%" stop-color="#6f9574" />
      <stop offset="100%" stop-color="#4c745a" />
    </linearGradient>
  </defs>
  <rect width="1200" height="700" fill="url(#sky)" />
  <circle cx="980" cy="130" r="72" fill="#f2d48b" />
  <path d="M0 430C190 350 320 350 500 430C680 510 870 500 1200 390V700H0Z" fill="url(#hillA)" />
  <path d="M0 520C220 430 430 420 620 500C810 580 1020 570 1200 500V700H0Z" fill="url(#hillB)" />
  <g fill="#2d513e">
    <path d="M190 470L225 388L260 470Z" />
    <rect x="220" y="468" width="10" height="46" />
    <path d="M320 500L354 420L388 500Z" />
    <rect x="350" y="498" width="8" height="42" />
    <path d="M930 470L965 388L1000 470Z" />
    <rect x="960" y="468" width="10" height="46" />
  </g>
</svg>
